HIERARCHY
ROOT Hips
{
	OFFSET 2.449462 101.596024 -2.749595
	CHANNELS 6 Xposition Yposition Zposition Xrotation Yrotation Zrotation
	JOINT Chest
	{
		OFFSET 2.612992 13.391266 0.024119
		CHANNELS 3 Xrotation Yrotation Zrotation
		JOINT Chest2
		{
			OFFSET -2.008984 20.544006 5.742340
			CHANNELS 3 Xrotation Yrotation Zrotation
			JOINT Chest3
			{
				OFFSET -0.358135 14.777557 2.077352
				CHANNELS 3 Xrotation Yrotation Zrotation
				JOINT Neck
				{
					OFFSET -0.531175 17.029144 2.888285
					CHANNELS 3 Xrotation Yrotation Zrotation
					JOINT Head
					{
						OFFSET -4.079118 9.407166 2.166517
						CHANNELS 3 Xrotation Yrotation Zrotation
						End Site
						{
							OFFSET -4.057930 9.431198 2.100832
						}
					}
				}
				JOINT LeftCollar
				{
					OFFSET 4.055059 12.787888 4.672361
					CHANNELS 3 Xrotation Yrotation Zrotation
					JOINT LeftUpArm
					{
						OFFSET 14.980007 -0.811081 -9.134604
						CHANNELS 3 Xrotation Yrotation Zrotation
						JOINT LeftLowArm
						{
							OFFSET 25.009630 -21.018112 -8.513860
							CHANNELS 3 Xrotation Yrotation Zrotation
							JOINT LeftHand
							{
								OFFSET 20.418865 -16.739700 14.275833
								CHANNELS 3 Xrotation Yrotation Zrotation
								End Site
								{
									OFFSET 4.462685 -3.658539 3.120063
								}
							}
						}
					}
				}
				JOINT RightCollar
				{
					OFFSET -4.319027 12.399567 5.422668
					CHANNELS 3 Xrotation Yrotation Zrotation
					JOINT RightUpArm
					{
						OFFSET -17.182621 -2.018555 -3.029726
						CHANNELS 3 Xrotation Yrotation Zrotation
						JOINT RightLowArm
						{
							OFFSET -22.208525 -5.709229 24.777411
							CHANNELS 3 Xrotation Yrotation Zrotation
							JOINT RightHand
							{
								OFFSET -18.463490 7.823883 22.334736
								CHANNELS 3 Xrotation Yrotation Zrotation
								End Site
								{
									OFFSET -4.035370 1.710037 4.881477
								}
							}
						}
					}
				}
			}
		}
	}
	JOINT LeftUpLeg
	{
		OFFSET 9.704357 -1.896721 1.626970
		CHANNELS 3 Xrotation Yrotation Zrotation
		JOINT LeftLowLeg
		{
			OFFSET 0.093781 -47.262833 3.194566
			CHANNELS 3 Xrotation Yrotation Zrotation
			JOINT LeftFoot
			{
				OFFSET -4.301932 -41.681919 -15.642215
				CHANNELS 3 Xrotation Yrotation Zrotation
				JOINT LeftToe
				{
					OFFSET 1.231483 -16.541649 16.864666
					CHANNELS 3 Xrotation Yrotation Zrotation
					End Site
					{
						OFFSET 1.329906 -2.055792 23.527941
					}
				}
			}
		}
	}
	JOINT RightUpLeg
	{
		OFFSET -9.704399 1.896530 -1.626971
		CHANNELS 3 Xrotation Yrotation Zrotation
		JOINT RightLowLeg
		{
			OFFSET -35.602795 -10.175735 29.545006
			CHANNELS 3 Xrotation Yrotation Zrotation
			JOINT RightFoot
			{
				OFFSET -7.986683 -43.962284 -2.027403
				CHANNELS 3 Xrotation Yrotation Zrotation
				JOINT RightToe
				{
					OFFSET 1.827560 -5.793667 22.861546
					CHANNELS 3 Xrotation Yrotation Zrotation
					End Site
					{
						OFFSET -7.671982 6.914989 21.280972
					}
				}
			}
		}
	}
}
MOTION
Frames: 5
Frame Time: 0.033333
-5.490102 105.072418 -1.111730 9.385068 8.583448 10.190238 -17.273644 5.479857 -12.091443 1.640925 -1.001603 2.763981 3.270456 -12.255885 -5.503518 -4.304205 21.857534 -13.606192 0.000002 -0.000002 -0.000000 2.340818 3.720880 -14.622742 -8.926276 -14.721448 -26.126932 21.544741 7.509247 -7.611874 -0.000000 0.000002 -0.000001 6.799224 -11.197847 16.308733 45.896740 -3.930102 46.700104 30.393922 26.620825 4.679472 -0.000006 -0.000003 0.000004 -1.752654 -0.593700 -6.918328 -11.331451 5.107010 5.542936 0.215869 -12.057625 -6.588978 0.000001 -0.000001 0.000000 37.292799 10.047820 47.521731 -36.985768 9.202868 -41.931358 21.824083 -2.951900 -38.453965 -0.000002 0.000001 0.000002 
-5.490666 105.075104 -1.109240 9.268988 8.925822 10.037483 -16.875080 5.332226 -11.891388 1.785376 -1.159519 2.954829 2.746388 -12.407501 -5.850644 -4.221064 21.886971 -13.564028 0.000002 -0.000003 -0.000000 2.383606 3.416201 -14.692647 -8.640193 -14.295200 -25.992469 21.133770 7.432138 -7.484315 0.000000 0.000005 -0.000001 6.826589 -11.200719 16.441066 45.780747 -3.916384 46.659553 30.153318 26.585214 4.924343 -0.000003 -0.000005 0.000003 -1.790432 -0.588972 -6.865611 -10.988730 4.959394 5.750437 0.075623 -12.506659 -6.581181 0.000001 -0.000000 0.000000 37.253880 10.125103 47.608655 -36.784902 9.142083 -41.851513 21.692893 -2.767069 -38.105113 -0.000005 -0.000001 0.000003 
-5.490969 105.072655 -1.103453 9.208303 8.987749 10.015965 -16.487935 5.221401 -11.843332 1.022371 -1.102494 2.756655 3.320541 -12.433970 -5.672795 -3.909760 21.916262 -13.520324 0.000001 -0.000001 -0.000000 2.573429 3.347315 -14.452528 -8.852780 -14.702793 -26.276407 21.202734 7.197944 -7.328345 -0.000000 -0.000001 0.000003 6.943562 -11.272025 16.155552 45.747053 -3.486192 46.574961 30.257123 26.586332 4.472270 -0.000003 0.000000 0.000003 -1.745634 -0.496207 -6.797086 -10.790440 4.903606 5.709422 0.071460 -12.398603 -6.547607 0.000001 0.000000 -0.000000 37.365407 10.087956 47.728218 -36.558803 8.961375 -41.940059 21.716088 -2.685181 -38.091658 -0.000002 -0.000002 0.000001 
-5.491624 105.069267 -1.094808 9.730470 8.969854 9.948008 -17.162966 5.344473 -11.824132 1.163726 -1.192517 2.861618 3.332691 -12.572943 -5.810272 -3.602311 22.090054 -13.674267 0.000000 -0.000002 -0.000000 2.519507 3.602929 -14.334984 -8.924946 -14.832118 -26.372959 21.260958 7.052922 -7.105002 -0.000003 -0.000001 0.000001 6.989042 -11.030242 16.017612 45.715139 -3.244788 46.597996 30.436966 26.226260 4.198855 -0.000002 -0.000002 0.000003 -2.245876 -0.362549 -6.833054 -10.700378 4.899518 5.798048 0.012415 -12.572074 -6.753999 0.000002 0.000000 0.000000 37.323920 10.089000 47.785588 -36.887850 9.269450 -41.887245 21.773945 -2.846889 -38.191986 -0.000004 -0.000002 -0.000001 
-5.494504 105.065697 -1.087076 10.206974 8.404856 10.047687 -18.075167 5.626618 -12.082144 2.080949 -1.067641 2.888491 2.958076 -12.252306 -5.549226 -4.079739 22.049977 -13.642668 0.000000 -0.000000 -0.000000 2.639931 3.531520 -14.157522 -8.903361 -14.831798 -26.419544 21.457575 7.233518 -7.275278 0.000002 0.000004 0.000006 7.032261 -10.962622 15.955993 45.731436 -3.150874 46.517283 30.486242 26.099442 4.380491 -0.000003 -0.000003 0.000004 -2.421727 -0.334572 -6.809094 -11.158404 4.919646 5.550644 0.184976 -11.997879 -6.911778 -0.000000 -0.000000 -0.000000 37.069708 10.115547 47.703926 -37.191913 9.636938 -41.998799 22.040805 -3.046820 -38.781514 -0.000003 0.000001 -0.000002 
